<svg width="1739" height="269" viewBox="0 0 1739 269" fill="none" xmlns="http://www.w3.org/2000/svg">
<path d="M99.54 122.64C99.54 136.56 94.68 148.32 84.96 157.92C75.36 167.52 63.6 172.32 49.68 172.32C45 172.32 40.74 171.12 36.9 168.72C33.06 171.12 28.74 172.32 23.94 172.32C17.1 172.32 11.4 170.04 6.84 165.48C2.28 161.04 0 155.4 0 148.56V52.08C0 38.16 4.8 26.4 14.4 16.8C24 7.19999 35.76 2.39999 49.68 2.39999C63.6 2.39999 75.36 7.19999 84.96 16.8C94.68 26.4 99.54 38.16 99.54 52.08C99.54 55.2 99.3 58.2 98.82 61.08C99.3 64.08 99.54 67.08 99.54 70.08C99.54 76.2 98.52 81.96 96.48 87.36C98.52 92.76 99.54 98.52 99.54 104.64C99.54 107.76 99.3 110.76 98.82 113.64C99.3 116.64 99.54 119.64 99.54 122.64ZM87.84 104.64C87.84 94.44 84.3 85.74 77.22 78.54C84.3 71.22 87.84 62.4 87.84 52.08C87.84 41.28 84.18 32.28 76.86 25.08C69.54 17.76 60.48 14.1 49.68 14.1C38.88 14.1 29.82 17.76 22.5 25.08C15.3 32.28 11.7 41.28 11.7 52.08V130.56C11.7 134.16 12.84 137.1 15.12 139.38C17.4 141.54 20.34 142.62 23.94 142.62C27.54 142.62 30.42 141.54 32.58 139.38C34.86 137.1 36 134.16 36 130.56V52.08C36 48.36 37.32 45.18 39.96 42.54C42.72 39.78 45.96 38.4 49.68 38.4C53.52 38.4 56.76 39.72 59.4 42.36C62.16 45 63.54 48.24 63.54 52.08C63.54 55.92 62.16 59.16 59.4 61.8C56.76 64.44 53.52 65.82 49.68 65.94C45.84 66.06 42.66 67.2 40.14 69.36C37.62 71.4 36.36 74.28 36.36 78C36.36 81.24 37.5 84 39.78 86.28C42.18 88.44 45.06 89.7 48.42 90.06C52.5 90.54 56.04 92.1 59.04 94.74C62.04 97.38 63.54 100.68 63.54 104.64C63.54 108.36 62.16 111.6 59.4 114.36C56.76 117 53.58 118.32 49.86 118.32C46.26 118.32 43.32 119.46 41.04 121.74C38.76 124.02 37.62 126.96 37.62 130.56C37.62 134.04 38.76 136.92 41.04 139.2C43.32 141.48 46.2 142.62 49.68 142.62C60.48 142.62 69.54 139.02 76.86 131.82C84.18 124.5 87.84 115.44 87.84 104.64ZM140.337 148.56C140.337 155.4 137.997 161.04 133.317 165.48C128.757 170.04 123.117 172.32 116.397 172.32C109.557 172.32 103.857 170.04 99.2967 165.48C94.8567 161.04 92.6367 155.4 92.6367 148.56V26.52C92.6367 19.68 94.8567 14.04 99.2967 9.6C103.857 5.04 109.557 2.76 116.397 2.76C123.717 2.76 129.537 4.92 133.857 9.23999C138.177 13.44 140.337 19.2 140.337 26.52V148.56ZM128.637 130.56V26.52C128.637 18.48 124.557 14.46 116.397 14.46C112.797 14.46 109.857 15.6 107.577 17.88C105.417 20.04 104.337 22.92 104.337 26.52V130.56C104.337 134.16 105.417 137.1 107.577 139.38C109.857 141.54 112.797 142.62 116.397 142.62C119.997 142.62 122.937 141.54 125.217 139.38C127.497 137.1 128.637 134.16 128.637 130.56ZM184.697 45.42C184.697 49.98 183.677 54.18 181.637 58.02C181.877 59.58 181.997 61.26 181.997 63.06V148.56C181.997 155.4 179.657 161.04 174.977 165.48C170.417 170.04 164.777 172.32 158.057 172.32C151.217 172.32 145.517 170.04 140.957 165.48C136.517 161.04 134.297 155.4 134.297 148.56V63.06C134.297 61.38 134.417 59.76 134.657 58.2C132.497 54.24 131.417 49.98 131.417 45.42C131.417 42.3 131.957 39.3 133.037 36.42C131.957 33.54 131.417 30.54 131.417 27.42C131.417 20.1 133.997 13.86 139.157 8.7C144.437 3.41999 150.737 0.779992 158.057 0.779992C165.377 0.779992 171.617 3.41999 176.777 8.7C182.057 13.86 184.697 20.1 184.697 27.42C184.697 30.54 184.157 33.54 183.077 36.42C184.157 39.3 184.697 42.3 184.697 45.42ZM172.997 27.42C172.997 23.34 171.497 19.86 168.497 16.98C165.617 13.98 162.137 12.48 158.057 12.48C153.977 12.48 150.437 13.98 147.437 16.98C144.557 19.86 143.117 23.34 143.117 27.42C143.117 31.5 144.557 35.04 147.437 38.04C150.437 40.92 153.977 42.36 158.057 42.36C162.137 42.36 165.617 40.92 168.497 38.04C171.497 35.04 172.997 31.5 172.997 27.42ZM170.297 130.56V63.06C170.297 55.02 166.217 51 158.057 51C154.457 51 151.517 52.14 149.237 54.42C147.077 56.58 145.997 59.46 145.997 63.06V130.56C145.997 134.16 147.077 137.1 149.237 139.38C151.517 141.54 154.457 142.62 158.057 142.62C161.657 142.62 164.597 141.54 166.877 139.38C169.157 137.1 170.297 134.16 170.297 130.56ZM270.273 81.06C270.273 87.54 268.113 93 263.793 97.44C259.593 101.88 254.253 104.34 247.773 104.82C247.773 104.7 247.653 104.46 247.413 104.1C247.173 103.74 247.053 103.5 247.053 103.38C246.933 106.38 246.873 110.16 246.873 114.72V118.14C246.873 127.14 246.213 134.04 244.893 138.84C242.973 145.92 239.073 152.46 233.193 158.46C224.073 167.58 212.973 172.14 199.893 172.14C193.053 172.14 187.353 169.86 182.793 165.3C178.353 160.86 176.133 155.22 176.133 148.38C176.133 145.26 176.673 142.26 177.753 139.38C176.673 136.5 176.133 133.5 176.133 130.38C176.133 123.66 178.293 118.02 182.613 113.46C187.053 108.9 192.633 106.56 199.353 106.44V104.28C199.353 102.96 199.413 101.58 199.533 100.14C199.413 98.58 199.353 97.26 199.353 96.18V86.28C199.353 73.08 203.853 61.98 212.853 52.98C221.973 43.86 233.133 39.3 246.333 39.3C253.173 39.3 258.873 41.58 263.433 46.14C267.993 50.58 270.273 56.22 270.273 63.06C270.273 66.3 269.733 69.3 268.653 72.06C269.733 74.82 270.273 77.82 270.273 81.06ZM258.573 63.06C258.573 59.46 257.433 56.58 255.153 54.42C252.873 52.14 249.933 51 246.333 51C236.373 51 227.973 54.42 221.133 61.26C214.413 67.98 211.053 76.32 211.053 86.28V96.18C211.053 97.02 210.993 99.48 210.873 103.56C210.873 103.56 210.873 104.76 210.873 107.16C210.873 110.28 209.793 112.92 207.633 115.08C205.593 117.12 203.013 118.14 199.893 118.14C196.293 118.14 193.353 119.28 191.073 121.56C188.913 123.84 187.833 126.78 187.833 130.38C187.833 133.98 188.913 136.92 191.073 139.2C193.353 141.36 196.293 142.44 199.893 142.44C209.733 142.44 218.013 139.02 224.733 132.18C231.573 125.34 235.053 117 235.173 107.16L235.353 86.28C235.353 84.48 235.473 83.16 235.713 82.32C236.073 81.36 237.033 80.1 238.593 78.54C240.153 76.98 242.853 75.9 246.693 75.3C250.653 74.58 253.593 73.26 255.513 71.34C257.553 69.3 258.573 66.54 258.573 63.06ZM330.109 81.06C330.109 87.54 327.949 93 323.629 97.44C319.429 101.88 314.089 104.34 307.609 104.82C307.609 104.7 307.489 104.46 307.249 104.1C307.009 103.74 306.889 103.5 306.889 103.38C306.769 106.38 306.709 110.16 306.709 114.72V118.14C306.709 127.14 306.049 134.04 304.729 138.84C302.809 145.92 298.909 152.46 293.029 158.46C283.909 167.58 272.809 172.14 259.729 172.14C252.889 172.14 247.189 169.86 242.629 165.3C238.189 160.86 235.969 155.22 235.969 148.38C235.969 145.26 236.509 142.26 237.589 139.38C236.509 136.5 235.969 133.5 235.969 130.38C235.969 123.66 238.129 118.02 242.449 113.46C246.889 108.9 252.469 106.56 259.189 106.44V104.28C259.189 102.96 259.249 101.58 259.369 100.14C259.249 98.58 259.189 97.26 259.189 96.18V86.28C259.189 73.08 263.689 61.98 272.689 52.98C281.809 43.86 292.969 39.3 306.169 39.3C313.009 39.3 318.709 41.58 323.269 46.14C327.829 50.58 330.109 56.22 330.109 63.06C330.109 66.3 329.569 69.3 328.489 72.06C329.569 74.82 330.109 77.82 330.109 81.06ZM318.409 63.06C318.409 59.46 317.269 56.58 314.989 54.42C312.709 52.14 309.769 51 306.169 51C296.209 51 287.809 54.42 280.969 61.26C274.249 67.98 270.889 76.32 270.889 86.28V96.18C270.889 97.02 270.829 99.48 270.709 103.56C270.709 103.56 270.709 104.76 270.709 107.16C270.709 110.28 269.629 112.92 267.469 115.08C265.429 117.12 262.849 118.14 259.729 118.14C256.129 118.14 253.189 119.28 250.909 121.56C248.749 123.84 247.669 126.78 247.669 130.38C247.669 133.98 248.749 136.92 250.909 139.2C253.189 141.36 256.129 142.44 259.729 142.44C269.569 142.44 277.849 139.02 284.569 132.18C291.409 125.34 294.889 117 295.009 107.16L295.189 86.28C295.189 84.48 295.309 83.16 295.549 82.32C295.909 81.36 296.869 80.1 298.429 78.54C299.989 76.98 302.689 75.9 306.529 75.3C310.489 74.58 313.429 73.26 315.349 71.34C317.389 69.3 318.409 66.54 318.409 63.06ZM424.505 108.96C424.505 115.8 422.225 121.5 417.665 126.06C413.225 130.5 407.585 132.72 400.745 132.72H370.505V148.56C370.505 155.4 368.225 161.04 363.665 165.48C359.105 170.04 353.405 172.32 346.565 172.32C339.725 172.32 334.025 170.04 329.465 165.48C325.025 161.04 322.805 155.4 322.805 148.56V52.98C322.805 38.7 327.665 26.7 337.385 16.98C347.105 7.25999 359.105 2.39999 373.385 2.39999C387.545 2.39999 399.485 7.31999 409.205 17.16C418.925 26.88 423.785 38.82 423.785 52.98V54.24C423.785 56.64 423.485 58.92 422.885 61.08C423.485 64.32 423.785 67.62 423.785 70.98V72.24C423.785 75.24 423.305 78.06 422.345 80.7C423.785 83.82 424.505 87.24 424.505 90.96C424.505 94.2 423.965 97.2 422.885 99.96C423.965 102.84 424.505 105.84 424.505 108.96ZM412.805 90.96C412.805 87.36 411.665 84.42 409.385 82.14C407.225 79.86 404.345 78.72 400.745 78.72H358.805V52.98C358.805 48.9 360.185 45.48 362.945 42.72C365.825 39.84 369.305 38.4 373.385 38.4C377.465 38.4 380.885 39.84 383.645 42.72C386.405 45.48 387.785 48.9 387.785 52.98V54.24C387.785 57.72 388.925 60.66 391.205 63.06C393.605 65.34 396.545 66.48 400.025 66.48C403.625 66.48 406.505 65.34 408.665 63.06C410.945 60.78 412.085 57.84 412.085 54.24V52.98C412.085 41.94 408.365 32.7 400.925 25.26C393.605 17.82 384.425 14.1 373.385 14.1C362.225 14.1 352.925 17.82 345.485 25.26C338.165 32.58 334.505 41.82 334.505 52.98V130.56C334.505 134.16 335.585 137.1 337.745 139.38C340.025 141.54 342.965 142.62 346.565 142.62C350.165 142.62 353.105 141.54 355.385 139.38C357.665 137.1 358.805 134.16 358.805 130.56V103.02H400.745C404.345 103.02 407.225 101.94 409.385 99.78C411.665 97.5 412.805 94.56 412.805 90.96ZM518.003 121.74C518.003 135.9 513.143 147.84 503.423 157.56C493.703 167.4 481.763 172.32 467.603 172.32C453.323 172.32 441.323 167.46 431.603 157.74C421.883 148.02 417.023 136.02 417.023 121.74V63.42C417.023 56.58 419.243 50.88 423.683 46.32C428.243 41.76 433.943 39.48 440.783 39.48C447.623 39.48 453.323 41.76 457.883 46.32C462.443 50.88 464.723 56.58 464.723 63.42V103.74C464.723 105.66 465.683 106.62 467.603 106.62C469.403 106.62 470.303 105.66 470.303 103.74V63.06C470.303 56.22 472.583 50.58 477.143 46.14C481.703 41.58 487.403 39.3 494.243 39.3C501.083 39.3 506.723 41.58 511.163 46.14C515.723 50.58 518.003 56.22 518.003 63.06V121.74ZM506.303 103.74V63.06C506.303 59.46 505.163 56.58 502.883 54.42C500.723 52.14 497.843 51 494.243 51C490.643 51 487.703 52.14 485.423 54.42C483.143 56.58 482.003 59.46 482.003 63.06V103.74C482.003 107.82 480.623 111.3 477.863 114.18C475.103 116.94 471.683 118.32 467.603 118.32C463.523 118.32 460.043 116.94 457.163 114.18C454.403 111.3 453.023 107.82 453.023 103.74V63.42C453.023 59.82 451.883 56.88 449.603 54.6C447.323 52.32 444.383 51.18 440.783 51.18C437.183 51.18 434.243 52.32 431.963 54.6C429.803 56.88 428.723 59.82 428.723 63.42V103.74C428.723 114.9 432.383 124.2 439.703 131.64C447.143 138.96 456.443 142.62 467.603 142.62C478.643 142.62 487.823 138.9 495.143 131.46C502.583 124.02 506.303 114.78 506.303 103.74ZM559.997 148.56C559.997 155.4 557.657 161.04 552.977 165.48C548.417 170.04 542.777 172.32 536.057 172.32C529.217 172.32 523.517 170.04 518.957 165.48C514.517 161.04 512.297 155.4 512.297 148.56V26.52C512.297 19.68 514.517 14.04 518.957 9.6C523.517 5.04 529.217 2.76 536.057 2.76C543.377 2.76 549.197 4.92 553.517 9.23999C557.837 13.44 559.997 19.2 559.997 26.52V148.56ZM548.297 130.56V26.52C548.297 18.48 544.217 14.46 536.057 14.46C532.457 14.46 529.517 15.6 527.237 17.88C525.077 20.04 523.997 22.92 523.997 26.52V130.56C523.997 134.16 525.077 137.1 527.237 139.38C529.517 141.54 532.457 142.62 536.057 142.62C539.657 142.62 542.597 141.54 544.877 139.38C547.157 137.1 548.297 134.16 548.297 130.56ZM707.989 122.64C707.989 136.56 703.129 148.32 693.409 157.92C683.809 167.52 672.049 172.32 658.129 172.32C653.449 172.32 649.189 171.12 645.349 168.72C641.509 171.12 637.189 172.32 632.389 172.32C625.549 172.32 619.849 170.04 615.289 165.48C610.729 161.04 608.449 155.4 608.449 148.56V52.08C608.449 38.16 613.249 26.4 622.849 16.8C632.449 7.19999 644.209 2.39999 658.129 2.39999C672.049 2.39999 683.809 7.19999 693.409 16.8C703.129 26.4 707.989 38.16 707.989 52.08C707.989 55.2 707.749 58.2 707.269 61.08C707.749 64.08 707.989 67.08 707.989 70.08C707.989 76.2 706.969 81.96 704.929 87.36C706.969 92.76 707.989 98.52 707.989 104.64C707.989 107.76 707.749 110.76 707.269 113.64C707.749 116.64 707.989 119.64 707.989 122.64ZM696.289 104.64C696.289 94.44 692.749 85.74 685.669 78.54C692.749 71.22 696.289 62.4 696.289 52.08C696.289 41.28 692.629 32.28 685.309 25.08C677.989 17.76 668.929 14.1 658.129 14.1C647.329 14.1 638.269 17.76 630.949 25.08C623.749 32.28 620.149 41.28 620.149 52.08V130.56C620.149 134.16 621.289 137.1 623.569 139.38C625.849 141.54 628.789 142.62 632.389 142.62C635.989 142.62 638.869 141.54 641.029 139.38C643.309 137.1 644.449 134.16 644.449 130.56V52.08C644.449 48.36 645.769 45.18 648.409 42.54C651.169 39.78 654.409 38.4 658.129 38.4C661.969 38.4 665.209 39.72 667.849 42.36C670.609 45 671.989 48.24 671.989 52.08C671.989 55.92 670.609 59.16 667.849 61.8C665.209 64.44 661.969 65.82 658.129 65.94C654.289 66.06 651.109 67.2 648.589 69.36C646.069 71.4 644.809 74.28 644.809 78C644.809 81.24 645.949 84 648.229 86.28C650.629 88.44 653.509 89.7 656.869 90.06C660.949 90.54 664.489 92.1 667.489 94.74C670.489 97.38 671.989 100.68 671.989 104.64C671.989 108.36 670.609 111.6 667.849 114.36C665.209 117 662.029 118.32 658.309 118.32C654.709 118.32 651.769 119.46 649.489 121.74C647.209 124.02 646.069 126.96 646.069 130.56C646.069 134.04 647.209 136.92 649.489 139.2C651.769 141.48 654.649 142.62 658.129 142.62C668.929 142.62 677.989 139.02 685.309 131.82C692.629 124.5 696.289 115.44 696.289 104.64ZM802.066 121.74C802.066 135.9 797.206 147.84 787.486 157.56C777.766 167.4 765.826 172.32 751.666 172.32C737.386 172.32 725.386 167.46 715.666 157.74C705.946 148.02 701.086 136.02 701.086 121.74V63.42C701.086 56.58 703.306 50.88 707.746 46.32C712.306 41.76 718.006 39.48 724.846 39.48C731.686 39.48 737.386 41.76 741.946 46.32C746.506 50.88 748.786 56.58 748.786 63.42V103.74C748.786 105.66 749.746 106.62 751.666 106.62C753.466 106.62 754.366 105.66 754.366 103.74V63.06C754.366 56.22 756.646 50.58 761.206 46.14C765.766 41.58 771.466 39.3 778.306 39.3C785.146 39.3 790.786 41.58 795.226 46.14C799.786 50.58 802.066 56.22 802.066 63.06V121.74ZM790.366 103.74V63.06C790.366 59.46 789.226 56.58 786.946 54.42C784.786 52.14 781.906 51 778.306 51C774.706 51 771.766 52.14 769.486 54.42C767.206 56.58 766.066 59.46 766.066 63.06V103.74C766.066 107.82 764.686 111.3 761.926 114.18C759.166 116.94 755.746 118.32 751.666 118.32C747.586 118.32 744.106 116.94 741.226 114.18C738.466 111.3 737.086 107.82 737.086 103.74V63.42C737.086 59.82 735.946 56.88 733.666 54.6C731.386 52.32 728.446 51.18 724.846 51.18C721.246 51.18 718.306 52.32 716.026 54.6C713.866 56.88 712.786 59.82 712.786 63.42V103.74C712.786 114.9 716.446 124.2 723.766 131.64C731.206 138.96 740.506 142.62 751.666 142.62C762.706 142.62 771.886 138.9 779.206 131.46C786.646 124.02 790.366 114.78 790.366 103.74ZM911.739 114.72C911.739 130.8 906.099 144.42 894.819 155.58C883.659 166.74 870.039 172.32 853.959 172.32C837.759 172.32 824.079 166.74 812.919 155.58C801.879 144.54 796.359 130.92 796.359 114.72V26.16C796.359 19.44 798.639 13.8 803.199 9.23999C807.759 4.67999 813.399 2.39999 820.119 2.39999C826.959 2.39999 832.659 4.67999 837.219 9.23999C841.779 13.68 844.059 19.32 844.059 26.16V40.92C847.179 39.6 850.479 38.94 853.959 38.94C870.279 38.94 883.959 44.52 894.999 55.68C906.159 66.72 911.739 80.4 911.739 96.72C911.739 99.84 911.499 102.84 911.019 105.72C911.499 108.72 911.739 111.72 911.739 114.72ZM900.039 96.72C900.039 83.64 895.599 72.72 886.719 63.96C877.959 55.08 867.039 50.64 853.959 50.64C850.359 50.64 847.419 51.78 845.139 54.06C842.979 56.34 841.899 59.28 841.899 62.88C841.899 66.48 842.979 69.42 845.139 71.7C847.419 73.86 850.359 74.94 853.959 74.94C859.959 74.94 865.059 77.1 869.259 81.42C873.579 85.62 875.739 90.72 875.739 96.72C875.739 102.72 873.579 107.82 869.259 112.02C865.059 116.22 859.959 118.32 853.959 118.32C847.959 118.32 842.859 116.22 838.659 112.02C834.459 107.82 832.359 102.72 832.359 96.72V26.16C832.359 22.56 831.219 19.68 828.939 17.52C826.659 15.24 823.719 14.1 820.119 14.1C816.639 14.1 813.759 15.24 811.479 17.52C809.199 19.8 808.059 22.68 808.059 26.16V96.72C808.059 109.68 812.439 120.6 821.199 129.48C830.079 138.24 840.999 142.62 853.959 142.62C866.919 142.62 877.839 138.24 886.719 129.48C895.599 120.6 900.039 109.68 900.039 96.72ZM858.459 105.72C857.139 105.12 855.219 104.7 852.699 104.46C849.819 104.22 847.839 103.92 846.759 103.56C848.679 105.6 851.079 106.62 853.959 106.62C855.519 106.62 857.019 106.32 858.459 105.72ZM1020.72 114.72C1020.72 130.8 1015.08 144.42 1003.8 155.58C992.644 166.74 979.024 172.32 962.944 172.32C946.744 172.32 933.064 166.74 921.904 155.58C910.864 144.54 905.344 130.92 905.344 114.72V26.16C905.344 19.44 907.624 13.8 912.184 9.23999C916.744 4.67999 922.384 2.39999 929.104 2.39999C935.944 2.39999 941.644 4.67999 946.204 9.23999C950.764 13.68 953.044 19.32 953.044 26.16V40.92C956.164 39.6 959.464 38.94 962.944 38.94C979.264 38.94 992.944 44.52 1003.98 55.68C1015.14 66.72 1020.72 80.4 1020.72 96.72C1020.72 99.84 1020.48 102.84 1020 105.72C1020.48 108.72 1020.72 111.72 1020.72 114.72ZM1009.02 96.72C1009.02 83.64 1004.58 72.72 995.704 63.96C986.944 55.08 976.024 50.64 962.944 50.64C959.344 50.64 956.404 51.78 954.124 54.06C951.964 56.34 950.884 59.28 950.884 62.88C950.884 66.48 951.964 69.42 954.124 71.7C956.404 73.86 959.344 74.94 962.944 74.94C968.944 74.94 974.044 77.1 978.244 81.42C982.564 85.62 984.724 90.72 984.724 96.72C984.724 102.72 982.564 107.82 978.244 112.02C974.044 116.22 968.944 118.32 962.944 118.32C956.944 118.32 951.844 116.22 947.644 112.02C943.444 107.82 941.344 102.72 941.344 96.72V26.16C941.344 22.56 940.204 19.68 937.924 17.52C935.644 15.24 932.704 14.1 929.104 14.1C925.624 14.1 922.744 15.24 920.464 17.52C918.184 19.8 917.044 22.68 917.044 26.16V96.72C917.044 109.68 921.424 120.6 930.184 129.48C939.064 138.24 949.984 142.62 962.944 142.62C975.904 142.62 986.824 138.24 995.704 129.48C1004.58 120.6 1009.02 109.68 1009.02 96.72ZM967.444 105.72C966.124 105.12 964.204 104.7 961.684 104.46C958.804 104.22 956.824 103.92 955.744 103.56C957.664 105.6 960.064 106.62 962.944 106.62C964.504 106.62 966.004 106.32 967.444 105.72ZM1062.03 148.56C1062.03 155.4 1059.69 161.04 1055.01 165.48C1050.45 170.04 1044.81 172.32 1038.09 172.32C1031.25 172.32 1025.55 170.04 1020.99 165.48C1016.55 161.04 1014.33 155.4 1014.33 148.56V26.52C1014.33 19.68 1016.55 14.04 1020.99 9.6C1025.55 5.04 1031.25 2.76 1038.09 2.76C1045.41 2.76 1051.23 4.92 1055.55 9.23999C1059.87 13.44 1062.03 19.2 1062.03 26.52V148.56ZM1050.33 130.56V26.52C1050.33 18.48 1046.25 14.46 1038.09 14.46C1034.49 14.46 1031.55 15.6 1029.27 17.88C1027.11 20.04 1026.03 22.92 1026.03 26.52V130.56C1026.03 134.16 1027.11 137.1 1029.27 139.38C1031.55 141.54 1034.49 142.62 1038.09 142.62C1041.69 142.62 1044.63 141.54 1046.91 139.38C1049.19 137.1 1050.33 134.16 1050.33 130.56ZM1162.19 91.32C1162.19 98.88 1159.13 105.12 1153.01 110.04C1152.05 111 1150.37 112.74 1147.97 115.26C1151.57 119.58 1153.37 124.74 1153.37 130.74C1153.37 133.86 1152.83 136.86 1151.75 139.74C1152.83 142.62 1153.37 145.62 1153.37 148.74C1153.37 155.58 1151.09 161.28 1146.53 165.84C1142.09 170.4 1136.45 172.68 1129.61 172.68H1113.59C1097.39 172.68 1083.71 167.1 1072.55 155.94C1061.51 144.9 1055.99 131.22 1055.99 114.9C1055.99 111.9 1056.23 108.9 1056.71 105.9C1056.23 102.9 1055.99 99.9 1055.99 96.9C1055.99 80.58 1061.51 66.9 1072.55 55.86C1083.59 44.82 1097.27 39.3 1113.59 39.3C1124.27 39.3 1134.65 42.24 1144.73 48.12C1156.37 54.84 1162.19 63.24 1162.19 73.32C1162.19 76.56 1161.59 79.56 1160.39 82.32C1161.59 85.2 1162.19 88.2 1162.19 91.32ZM1150.49 73.32C1150.49 70.32 1149.29 67.56 1146.89 65.04C1137.77 55.68 1126.67 51 1113.59 51C1100.51 51 1089.59 55.38 1080.83 64.14C1072.07 72.9 1067.69 83.82 1067.69 96.9C1067.69 109.98 1072.07 120.96 1080.83 129.84C1089.59 138.6 1100.51 142.98 1113.59 142.98H1129.61C1133.21 142.98 1136.09 141.84 1138.25 139.56C1140.53 137.28 1141.67 134.34 1141.67 130.74C1141.67 127.14 1140.53 124.26 1138.25 122.1C1136.09 119.82 1133.21 118.68 1129.61 118.68H1113.59C1107.59 118.68 1102.49 116.58 1098.29 112.38C1094.09 108.06 1091.99 102.9 1091.99 96.9C1091.99 90.9 1094.09 85.8 1098.29 81.6C1102.49 77.4 1107.59 75.3 1113.59 75.3C1115.15 75.3 1116.71 75.42 1118.27 75.66L1105.31 88.44C1102.67 91.08 1101.35 93.9 1101.35 96.9C1101.35 100.26 1102.55 103.2 1104.95 105.72C1107.47 108.24 1110.41 109.5 1113.77 109.5C1116.77 109.5 1119.59 108.24 1122.23 105.72L1145.27 83.22C1148.75 80.58 1150.49 77.28 1150.49 73.32ZM1389.24 188.16C1389.24 195 1386.96 200.64 1382.4 205.08C1377.84 209.64 1372.14 211.92 1365.3 211.92C1350.9 211.92 1338.72 207.06 1328.76 197.34C1318.92 187.74 1314 175.74 1314 161.34V70.98C1314 69.18 1313.16 68.22 1311.48 68.1V148.56C1311.48 155.4 1309.2 161.04 1304.64 165.48C1300.08 170.04 1294.38 172.32 1287.54 172.32C1280.7 172.32 1275 170.04 1270.44 165.48C1266 161.04 1263.78 155.4 1263.78 148.56V70.98C1263.78 69.06 1262.82 68.1 1260.9 68.1C1258.98 68.1 1258.02 69.06 1258.02 70.98V148.56C1258.02 155.4 1255.74 161.04 1251.18 165.48C1246.74 170.04 1241.1 172.32 1234.26 172.32C1227.42 172.32 1221.72 170.04 1217.16 165.48C1212.6 161.04 1210.32 155.4 1210.32 148.56V52.98C1210.32 38.82 1215.18 26.88 1224.9 17.16C1234.74 7.31999 1246.74 2.39999 1260.9 2.39999C1270.02 2.39999 1278.42 4.61999 1286.1 9.05999C1293.66 4.61999 1302.06 2.39999 1311.3 2.39999C1325.46 2.39999 1337.4 7.31999 1347.12 17.16C1356.84 26.88 1361.7 38.82 1361.7 52.98V143.34C1361.7 145.26 1362.66 146.22 1364.58 146.22C1371.66 146.22 1377.54 148.44 1382.22 152.88C1386.9 157.44 1389.24 163.2 1389.24 170.16C1389.24 173.28 1388.7 176.28 1387.62 179.16C1388.7 181.92 1389.24 184.92 1389.24 188.16ZM1377.54 170.16C1377.54 166.56 1376.4 163.62 1374.12 161.34C1371.84 159.06 1368.9 157.92 1365.3 157.92H1364.58C1360.5 157.92 1357.02 156.48 1354.14 153.6C1351.38 150.84 1350 147.42 1350 143.34V52.98C1350 41.94 1346.28 32.7 1338.84 25.26C1331.52 17.82 1322.34 14.1 1311.3 14.1C1301.7 14.1 1293.3 17.22 1286.1 23.46C1278.78 17.22 1270.38 14.1 1260.9 14.1C1249.86 14.1 1240.62 17.82 1233.18 25.26C1225.74 32.7 1222.02 41.94 1222.02 52.98V130.56C1222.02 134.16 1223.16 137.1 1225.44 139.38C1227.72 141.54 1230.66 142.62 1234.26 142.62C1237.86 142.62 1240.74 141.54 1242.9 139.38C1245.18 137.1 1246.32 134.16 1246.32 130.56V52.98C1246.32 48.9 1247.7 45.48 1250.46 42.72C1253.34 39.84 1256.82 38.4 1260.9 38.4C1264.86 38.4 1268.28 39.84 1271.16 42.72C1274.04 45.6 1275.48 49.02 1275.48 52.98V130.56C1275.48 134.16 1276.56 137.1 1278.72 139.38C1281 141.54 1283.94 142.62 1287.54 142.62C1291.14 142.62 1294.08 141.54 1296.36 139.38C1298.64 137.1 1299.78 134.16 1299.78 130.56V44.16C1302.66 40.32 1306.5 38.4 1311.3 38.4C1315.26 38.4 1318.62 39.84 1321.38 42.72C1324.26 45.6 1325.7 49.02 1325.7 52.98V143.34C1325.7 154.38 1329.42 163.62 1336.86 171.06C1344.3 178.5 1353.54 182.22 1364.58 182.22H1365.3C1368.9 182.22 1371.84 181.08 1374.12 178.8C1376.4 176.64 1377.54 173.76 1377.54 170.16ZM1461.9 91.32C1461.9 98.88 1458.84 105.12 1452.72 110.04C1451.76 111 1450.08 112.74 1447.68 115.26C1451.28 119.58 1453.08 124.74 1453.08 130.74C1453.08 133.86 1452.54 136.86 1451.46 139.74C1452.54 142.62 1453.08 145.62 1453.08 148.74C1453.08 155.58 1450.8 161.28 1446.24 165.84C1441.8 170.4 1436.16 172.68 1429.32 172.68H1413.3C1397.1 172.68 1383.42 167.1 1372.26 155.94C1361.22 144.9 1355.7 131.22 1355.7 114.9C1355.7 111.9 1355.94 108.9 1356.42 105.9C1355.94 102.9 1355.7 99.9 1355.7 96.9C1355.7 80.58 1361.22 66.9 1372.26 55.86C1383.3 44.82 1396.98 39.3 1413.3 39.3C1423.98 39.3 1434.36 42.24 1444.44 48.12C1456.08 54.84 1461.9 63.24 1461.9 73.32C1461.9 76.56 1461.3 79.56 1460.1 82.32C1461.3 85.2 1461.9 88.2 1461.9 91.32ZM1450.2 73.32C1450.2 70.32 1449 67.56 1446.6 65.04C1437.48 55.68 1426.38 51 1413.3 51C1400.22 51 1389.3 55.38 1380.54 64.14C1371.78 72.9 1367.4 83.82 1367.4 96.9C1367.4 109.98 1371.78 120.96 1380.54 129.84C1389.3 138.6 1400.22 142.98 1413.3 142.98H1429.32C1432.92 142.98 1435.8 141.84 1437.96 139.56C1440.24 137.28 1441.38 134.34 1441.38 130.74C1441.38 127.14 1440.24 124.26 1437.96 122.1C1435.8 119.82 1432.92 118.68 1429.32 118.68H1413.3C1407.3 118.68 1402.2 116.58 1398 112.38C1393.8 108.06 1391.7 102.9 1391.7 96.9C1391.7 90.9 1393.8 85.8 1398 81.6C1402.2 77.4 1407.3 75.3 1413.3 75.3C1414.86 75.3 1416.42 75.42 1417.98 75.66L1405.02 88.44C1402.38 91.08 1401.06 93.9 1401.06 96.9C1401.06 100.26 1402.26 103.2 1404.66 105.72C1407.18 108.24 1410.12 109.5 1413.48 109.5C1416.48 109.5 1419.3 108.24 1421.94 105.72L1444.98 83.22C1448.46 80.58 1450.2 77.28 1450.2 73.32ZM1529.88 81.06C1529.88 88.14 1527.72 93.78 1523.4 97.98C1519.2 102.06 1513.68 104.4 1506.84 105C1504.44 105.12 1503.24 106.02 1503.24 107.7V148.56C1503.24 155.4 1500.96 161.04 1496.4 165.48C1491.84 170.04 1486.14 172.32 1479.3 172.32C1472.46 172.32 1466.76 170.04 1462.2 165.48C1457.76 161.04 1455.54 155.4 1455.54 148.56V89.7C1455.54 75.54 1460.4 63.6 1470.12 53.88C1479.96 44.16 1491.96 39.3 1506.12 39.3C1512.84 39.3 1518.48 41.58 1523.04 46.14C1527.6 50.7 1529.88 56.34 1529.88 63.06C1529.88 66.42 1529.34 69.48 1528.26 72.24C1529.34 75 1529.88 77.94 1529.88 81.06ZM1518.18 63.06C1518.18 59.58 1517.04 56.7 1514.76 54.42C1512.48 52.14 1509.6 51 1506.12 51C1495.08 51 1485.84 54.72 1478.4 62.16C1470.96 69.48 1467.24 78.66 1467.24 89.7V130.56C1467.24 134.16 1468.32 137.1 1470.48 139.38C1472.76 141.54 1475.7 142.62 1479.3 142.62C1482.9 142.62 1485.84 141.54 1488.12 139.38C1490.4 137.1 1491.54 134.16 1491.54 130.56V89.7C1491.54 85.62 1492.86 82.32 1495.5 79.8C1498.26 77.16 1501.68 75.66 1505.76 75.3C1514.04 74.58 1518.18 70.5 1518.18 63.06ZM1637.71 210.66C1637.71 226.86 1632.13 240.48 1620.97 251.52C1609.93 262.68 1596.31 268.26 1580.11 268.26C1563.91 268.26 1550.23 262.68 1539.07 251.52C1528.03 240.48 1522.51 226.86 1522.51 210.66C1522.51 207.66 1522.75 204.66 1523.23 201.66C1522.75 198.66 1522.51 195.66 1522.51 192.66C1522.51 177.66 1527.37 164.7 1537.09 153.78C1527.37 142.98 1522.51 130.02 1522.51 114.9C1522.51 111.9 1522.75 108.9 1523.23 105.9C1522.75 102.9 1522.51 99.9 1522.51 96.9C1522.51 80.58 1528.03 66.9 1539.07 55.86C1550.11 44.82 1563.79 39.3 1580.11 39.3C1596.43 39.3 1610.11 44.82 1621.15 55.86C1632.19 66.9 1637.71 80.58 1637.71 96.9V158.28C1637.71 165.24 1636.15 171.78 1633.03 177.9C1636.15 182.1 1637.71 187.02 1637.71 192.66C1637.71 196.38 1637.41 199.98 1636.81 203.46C1637.41 205.74 1637.71 208.14 1637.71 210.66ZM1587.31 107.88C1585.39 105.96 1582.99 105 1580.11 105C1578.55 105 1577.11 105.3 1575.79 105.9C1576.99 106.5 1578.91 106.92 1581.55 107.16C1584.31 107.4 1586.23 107.64 1587.31 107.88ZM1626.01 192.66C1626.01 189.06 1624.87 186.12 1622.59 183.84C1620.43 181.56 1617.55 180.42 1613.95 180.42C1610.47 180.42 1607.53 181.56 1605.13 183.84C1602.85 186.24 1601.71 189.18 1601.71 192.66C1601.71 198.66 1599.61 203.76 1595.41 207.96C1591.21 212.16 1586.11 214.26 1580.11 214.26C1574.11 214.26 1569.01 212.16 1564.81 207.96C1560.61 203.76 1558.51 198.66 1558.51 192.66C1558.51 186.66 1560.61 181.5 1564.81 177.18C1569.01 172.98 1574.11 170.88 1580.11 170.88H1595.59C1604.11 170.88 1611.31 167.88 1617.19 161.88C1623.07 156 1626.01 148.8 1626.01 140.28V96.9C1626.01 83.82 1621.63 72.9 1612.87 64.14C1604.11 55.38 1593.19 51 1580.11 51C1567.03 51 1556.11 55.38 1547.35 64.14C1538.59 72.9 1534.21 83.82 1534.21 96.9C1534.21 109.98 1538.59 120.96 1547.35 129.84C1556.11 138.6 1567.03 142.98 1580.11 142.98C1583.71 142.98 1586.65 141.84 1588.93 139.56C1591.21 137.28 1592.35 134.34 1592.35 130.74C1592.35 127.14 1591.21 124.26 1588.93 122.1C1586.65 119.82 1583.71 118.68 1580.11 118.68C1574.11 118.68 1569.01 116.58 1564.81 112.38C1560.61 108.06 1558.51 102.9 1558.51 96.9C1558.51 90.9 1560.61 85.8 1564.81 81.6C1569.01 77.4 1574.11 75.3 1580.11 75.3C1586.11 75.3 1591.21 77.4 1595.41 81.6C1599.61 85.8 1601.71 90.9 1601.71 96.9V140.28C1601.71 141.96 1601.11 143.4 1599.91 144.6C1598.71 145.92 1597.27 146.58 1595.59 146.58H1579.93C1566.97 146.58 1556.11 151.02 1547.35 159.9C1538.59 168.78 1534.21 179.7 1534.21 192.66C1534.21 205.62 1538.59 216.48 1547.35 225.24C1556.23 234.12 1567.15 238.56 1580.11 238.56C1593.07 238.56 1603.93 234.12 1612.69 225.24C1621.57 216.48 1626.01 205.62 1626.01 192.66ZM1586.23 200.58H1580.11C1578.55 200.58 1577.11 200.94 1575.79 201.66C1577.11 202.26 1578.55 202.56 1580.11 202.56C1582.39 202.56 1584.43 201.9 1586.23 200.58ZM1738.4 91.32C1738.4 98.88 1735.34 105.12 1729.22 110.04C1728.26 111 1726.58 112.74 1724.18 115.26C1727.78 119.58 1729.58 124.74 1729.58 130.74C1729.58 133.86 1729.04 136.86 1727.96 139.74C1729.04 142.62 1729.58 145.62 1729.58 148.74C1729.58 155.58 1727.3 161.28 1722.74 165.84C1718.3 170.4 1712.66 172.68 1705.82 172.68H1689.8C1673.6 172.68 1659.92 167.1 1648.76 155.94C1637.72 144.9 1632.2 131.22 1632.2 114.9C1632.2 111.9 1632.44 108.9 1632.92 105.9C1632.44 102.9 1632.2 99.9 1632.2 96.9C1632.2 80.58 1637.72 66.9 1648.76 55.86C1659.8 44.82 1673.48 39.3 1689.8 39.3C1700.48 39.3 1710.86 42.24 1720.94 48.12C1732.58 54.84 1738.4 63.24 1738.4 73.32C1738.4 76.56 1737.8 79.56 1736.6 82.32C1737.8 85.2 1738.4 88.2 1738.4 91.32ZM1726.7 73.32C1726.7 70.32 1725.5 67.56 1723.1 65.04C1713.98 55.68 1702.88 51 1689.8 51C1676.72 51 1665.8 55.38 1657.04 64.14C1648.28 72.9 1643.9 83.82 1643.9 96.9C1643.9 109.98 1648.28 120.96 1657.04 129.84C1665.8 138.6 1676.72 142.98 1689.8 142.98H1705.82C1709.42 142.98 1712.3 141.84 1714.46 139.56C1716.74 137.28 1717.88 134.34 1717.88 130.74C1717.88 127.14 1716.74 124.26 1714.46 122.1C1712.3 119.82 1709.42 118.68 1705.82 118.68H1689.8C1683.8 118.68 1678.7 116.58 1674.5 112.38C1670.3 108.06 1668.2 102.9 1668.2 96.9C1668.2 90.9 1670.3 85.8 1674.5 81.6C1678.7 77.4 1683.8 75.3 1689.8 75.3C1691.36 75.3 1692.92 75.42 1694.48 75.66L1681.52 88.44C1678.88 91.08 1677.56 93.9 1677.56 96.9C1677.56 100.26 1678.76 103.2 1681.16 105.72C1683.68 108.24 1686.62 109.5 1689.98 109.5C1692.98 109.5 1695.8 108.24 1698.44 105.72L1721.48 83.22C1724.96 80.58 1726.7 77.28 1726.7 73.32Z" fill="white"/>
</svg>
