<svg width="400" height="400" viewBox="0 0 400 400" fill="none" xmlns="http://www.w3.org/2000/svg">
<g clip-path="url(#clip0_2_23)">
<circle cx="200" cy="200" r="190" stroke="white" stroke-width="20"/>
<mask id="path-2-inside-1_2_23" fill="white">
<path d="M60.8127 200C54.841 200 49.9594 195.152 50.3893 189.196C52.9755 153.363 68.3611 119.507 93.934 93.934C119.507 68.3611 153.363 52.9755 189.196 50.3893C195.152 49.9594 200 54.841 200 60.8127V60.8127C200 66.7844 195.15 71.5781 189.199 72.0803C159.108 74.6198 130.741 87.7095 109.225 109.225C87.7095 130.741 74.6198 159.108 72.0803 189.199C71.5781 195.15 66.7844 200 60.8127 200V200Z"/>
</mask>
<path d="M60.8127 200C54.841 200 49.9594 195.152 50.3893 189.196C52.9755 153.363 68.3611 119.507 93.934 93.934C119.507 68.3611 153.363 52.9755 189.196 50.3893C195.152 49.9594 200 54.841 200 60.8127V60.8127C200 66.7844 195.15 71.5781 189.199 72.0803C159.108 74.6198 130.741 87.7095 109.225 109.225C87.7095 130.741 74.6198 159.108 72.0803 189.199C71.5781 195.15 66.7844 200 60.8127 200V200Z" stroke="white" stroke-width="40" stroke-linejoin="round" mask="url(#path-2-inside-1_2_23)"/>
</g>
<defs>
<clipPath id="clip0_2_23">
<rect width="400" height="400" fill="white"/>
</clipPath>
</defs>
</svg>
