<svg width="400" height="400" viewBox="0 0 400 400" fill="none" xmlns="http://www.w3.org/2000/svg">
<path fill-rule="evenodd" clip-rule="evenodd" d="M200 377.143C297.833 377.143 377.143 297.833 377.143 200C377.143 102.167 297.833 22.8571 200 22.8571C102.167 22.8571 22.8571 102.167 22.8571 200C22.8571 297.833 102.167 377.143 200 377.143ZM200 400C310.457 400 400 310.457 400 200C400 89.5431 310.457 0 200 0C89.5431 0 0 89.5431 0 200C0 310.457 89.5431 400 200 400Z" fill="white"/>
<path fill-rule="evenodd" clip-rule="evenodd" d="M72.7135 185.316C72.5639 186.613 72.434 187.914 72.3239 189.218C72.2798 189.742 72.2022 190.257 72.0936 190.761C70.9698 195.973 66.5126 199.999 61.0779 199.999C55.1175 199.999 50.2452 195.16 50.6743 189.215C50.7179 188.611 50.7652 188.006 50.8161 187.403C50.9613 185.683 51.1359 183.969 51.3398 182.259C55.2973 149.087 70.2729 117.998 94.136 94.1346C117.999 70.2714 149.089 55.2959 182.261 51.3384C183.97 51.1345 185.685 50.9598 187.404 50.8147C188.008 50.7637 188.612 50.7165 189.217 50.6728C195.162 50.2438 200 55.1161 200 61.0764C200 66.5111 195.975 70.9683 190.763 72.0921C190.259 72.2008 189.743 72.2783 189.22 72.3225C187.916 72.4325 186.615 72.5624 185.318 72.712C156.741 76.0076 129.941 88.8544 109.398 109.397C88.8558 129.939 76.009 156.739 72.7135 185.316Z" fill="white"/>
<circle cx="61.7142" cy="234.286" r="11.4286" fill="white"/>
<circle cx="67.4286" cy="267.429" r="5.71429" fill="white"/>
<circle cx="78.857" cy="290.286" r="2.28571" fill="white"/>
<circle cx="92.5716" cy="306.285" r="1.14286" fill="white"/>
<path fill-rule="evenodd" clip-rule="evenodd" d="M327.287 214.684C327.436 213.387 327.566 212.086 327.676 210.782C327.72 210.258 327.798 209.743 327.906 209.239C329.03 204.026 333.487 200.001 338.922 200.001C344.882 200.001 349.755 204.84 349.326 210.785C349.282 211.389 349.235 211.994 349.184 212.597C349.039 214.317 348.864 216.031 348.66 217.741C344.703 250.913 329.727 282.002 305.864 305.865C282.001 329.729 250.911 344.704 217.739 348.662C216.03 348.866 214.315 349.04 212.596 349.185C211.992 349.236 211.388 349.284 210.783 349.327C204.838 349.756 200 344.884 200 338.924C200 333.489 204.025 329.032 209.237 327.908C209.741 327.799 210.257 327.722 210.78 327.678C212.084 327.567 213.385 327.438 214.682 327.288C243.259 323.992 270.059 311.146 290.602 290.603C311.144 270.061 323.991 243.261 327.287 214.684Z" fill="white"/>
<circle cx="338.286" cy="165.714" r="11.4286" transform="rotate(180 338.286 165.714)" fill="white"/>
<circle cx="332.571" cy="132.571" r="5.71429" transform="rotate(180 332.571 132.571)" fill="white"/>
<circle cx="321.143" cy="109.714" r="2.28571" transform="rotate(180 321.143 109.714)" fill="white"/>
<circle cx="307.429" cy="93.7146" r="1.14286" transform="rotate(180 307.429 93.7146)" fill="white"/>
</svg>
